<?xml version="1.0" encoding="UTF-8"?>
<svg width="28px" height="26px" viewBox="0 0 28 26" version="1.1" xmlns="http://www.w3.org/2000/svg" xmlns:xlink="http://www.w3.org/1999/xlink">
    <!-- Generator: Sketch 42 (36781) - http://www.bohemiancoding.com/sketch -->
    <title>inst</title>
    <desc>Created with Sketch.</desc>
    <defs></defs>
    <g id="Page-1" stroke="none" stroke-width="1" fill="none" fill-rule="evenodd">
        <rect id="Rectangle" fill-opacity="0" fill="#FFFFFF" x="-38" y="-84" width="171" height="123"></rect>
        <path d="M14.0000278,0 C17.8021717,0 18.2789332,0.0149650386 19.7721821,0.0782310292 C21.2623189,0.141342209 22.2800288,0.361121862 23.170532,0.682508966 C24.0911557,1.01468122 24.871902,1.45919447 25.6502587,2.18190262 C26.4285598,2.90466238 26.9072664,3.6296411 27.2650459,4.48450602 C27.6110995,5.31140181 27.8477853,6.2564182 27.9157512,7.64011662 C27.9838838,9.02670485 28,9.46941198 28,13.0000258 C28,16.530588 27.9838838,16.9732951 27.9157512,18.3598834 C27.8477853,19.7435818 27.6110995,20.6885982 27.2650459,21.515494 C26.9072664,22.3703589 26.4285598,23.0953376 25.6502587,23.8180974 C24.871902,24.5408055 24.0911557,24.9853188 23.170532,25.3175426 C22.2800288,25.6388781 21.2623189,25.8586578 19.7721821,25.921769 C18.2789332,25.985035 17.8021717,26 14.0000278,26 C10.1978283,26 9.72106677,25.985035 8.2278179,25.921769 C6.73768113,25.8586578 5.71997118,25.6388781 4.82946803,25.3175426 C3.90884426,24.9853188 3.12809795,24.5408055 2.34974129,23.8180974 C1.5714402,23.0953376 1.09273362,22.3703589 0.735009656,21.515494 C0.388900467,20.6885982 0.152214687,19.7435818 0.0842488007,18.3598834 C0.0161161954,16.9732951 -3.55271368e-15,16.530588 -3.55271368e-15,13.0000258 C-3.55271368e-15,9.46941198 0.0161161954,9.02670485 0.0842488007,7.64011662 C0.152214687,6.2564182 0.388900467,5.31140181 0.735009656,4.48450602 C1.09273362,3.6296411 1.5714402,2.90466238 2.34974129,2.18190262 C3.12809795,1.45919447 3.90884426,1.01468122 4.82946803,0.682508966 C5.71997118,0.361121862 6.73768113,0.141342209 8.2278179,0.0782310292 C9.72106677,0.0149650386 10.1978283,0 14.0000278,0 Z M14.0000278,2.34233816 C10.2618485,2.34233816 9.81904212,2.35560028 8.34279862,2.41814382 C6.97781244,2.47593983 6.23652303,2.68772093 5.74320073,2.86575328 C5.0897168,3.10158165 4.62334744,3.3832856 4.13347068,3.83822277 C3.64353834,4.29310834 3.34016485,4.7261656 3.08619584,5.33297211 C2.89446869,5.7910571 2.66639674,6.47939727 2.60415488,7.74688443 C2.5368003,9.11768197 2.52251802,9.5288593 2.52251802,13.0000258 C2.52251802,16.4711407 2.5368003,16.882318 2.60415488,18.2531156 C2.66639674,19.5206027 2.89446869,20.2089429 3.08619584,20.6670279 C3.34016485,21.2738344 3.64359391,21.7068917 4.13347068,22.1617772 C4.62334744,22.6167144 5.0897168,22.8984184 5.74320073,23.1342467 C6.23652303,23.3122791 6.97781244,23.5240602 8.34279862,23.5818562 C9.8188754,23.6443997 10.2615706,23.6576618 14.0000278,23.6576618 C17.7384294,23.6576618 18.1811802,23.6443997 19.6572014,23.5818562 C21.0221876,23.5240602 21.763477,23.3122791 22.2567993,23.1342467 C22.9102832,22.8984184 23.3766526,22.6167144 23.8665293,22.1617772 C24.3564617,21.7068917 24.6598351,21.2738344 24.9138042,20.6670279 C25.1055313,20.2089429 25.3336033,19.5206027 25.3958451,18.2531156 C25.4631997,16.882318 25.477482,16.4711407 25.477482,13.0000258 C25.477482,9.5288593 25.4631997,9.11768197 25.3958451,7.74688443 C25.3336033,6.47939727 25.1055313,5.7910571 24.9138042,5.33297211 C24.6598351,4.7261656 24.3564617,4.29310834 23.8665293,3.83822277 C23.3766526,3.3832856 22.9102832,3.10158165 22.2567993,2.86575328 C21.763477,2.68772093 21.0221876,2.47593983 19.6572014,2.41814382 C18.1809579,2.35560028 17.7381515,2.34233816 14.0000278,2.34233816 Z M14.0000278,6.32432851 C17.9705026,6.32432851 21.1891847,9.31310473 21.1891847,13.0000258 C21.1891847,16.6868953 17.9705026,19.6756715 14.0000278,19.6756715 C10.0294974,19.6756715 6.81081532,16.6868953 6.81081532,13.0000258 C6.81081532,9.31310473 10.0294974,6.32432851 14.0000278,6.32432851 Z M14.0000278,17.3333333 C16.5773409,17.3333333 18.6666667,15.3932451 18.6666667,13.0000258 C18.6666667,10.6067549 16.5773409,8.66666667 14.0000278,8.66666667 C11.4226591,8.66666667 9.33333333,10.6067549 9.33333333,13.0000258 C9.33333333,15.3932451 11.4226591,17.3333333 14.0000278,17.3333333 Z M23.1532487,6.0605826 C23.1532487,6.922156 22.401067,7.62055887 21.4732187,7.62055887 C20.545426,7.62055887 19.7932443,6.922156 19.7932443,6.0605826 C19.7932443,5.19900921 20.545426,4.50055474 21.4732187,4.50055474 C22.401067,4.50055474 23.1532487,5.19900921 23.1532487,6.0605826 Z" id="Instagram-Copy-4" fill="#FFFFFF"></path>
        <path d="M-4.22818595,-25 C-3.16699159,-25 0.487246417,-24.7104333 2.20931048,-20.7887171 C2.77635754,-19.4973375 2.63099851,-17.158059 2.51441763,-15.2788956 C2.49621104,-14.9806784 2.47815128,-14.6916337 2.46346855,-14.4156392 L2.4573018,-14.2969937 L2.5352671,-14.2086248 C2.56676156,-14.173128 2.86151738,-13.86022 3.5171013,-13.8344923 L3.52767287,-13.8338957 L3.53868492,-13.8341195 C3.97211913,-13.8508984 4.46031992,-13.9876651 4.99051332,-14.2399454 C5.06862545,-14.2770827 5.17257918,-14.2952039 5.28255284,-14.2952039 C5.40786994,-14.2952039 5.54104231,-14.271266 5.65086914,-14.2242851 L5.66746062,-14.2175735 C5.94547813,-14.1186152 6.14200648,-13.9320337 6.14501644,-13.7632006 C6.14663154,-13.6677472 6.07637467,-13.3238914 5.09086979,-12.9284311 C4.99455108,-12.8898024 4.8677657,-12.8487127 4.72079156,-12.8016571 C4.07944989,-12.5947918 3.11053649,-12.2826295 2.78443304,-11.5020746 C2.6008255,-11.0623925 2.65111385,-10.543514 2.93375641,-9.96005535 C3.05004364,-9.6843592 4.8806865,-5.49574643 9,-4.80624505 C8.99919245,-4.78640865 8.99420032,-4.76470792 8.98318827,-4.73912941 C8.91337189,-4.57208603 8.46958635,-3.99496606 5.70805837,-3.56214473 C5.27594561,-3.49487994 5.17008312,-3.0028477 5.04733549,-2.43087326 C5.00299365,-2.22609598 4.95791766,-2.01937979 4.89595654,-1.80587747 C4.87701582,-1.74137188 4.87349196,-1.73771781 4.8054375,-1.73771781 L4.77298867,-1.73771781 C4.6505347,-1.73771781 4.46465133,-1.76352004 4.24918225,-1.80647406 C3.85678628,-1.88410449 3.32071978,-1.97933413 2.63540333,-1.97933413 C2.25291819,-1.97933413 1.85890712,-1.94555259 1.46357459,-1.87851151 C0.618510029,-1.73577891 -0.0687151795,-1.24203149 -0.796538138,-0.719424344 C-1.77396752,-0.0178421459 -2.7842128,0.708125403 -4.32560587,0.708125403 C-4.39292619,0.708125403 -4.45863141,0.705813642 -4.52448345,0.702457859 L-4.54180908,0.70171213 L-4.55920811,0.703054443 C-4.59701614,0.706410225 -4.63511783,0.708125403 -4.67402707,0.708125403 C-6.21519989,0.708125403 -7.22588565,-0.0176184271 -8.20287455,-0.719424344 C-8.93084434,-1.24203149 -9.61843662,-1.73577891 -10.4633544,-1.87851151 C-10.8583198,-1.94532887 -11.252698,-1.97933413 -11.6349628,-1.97933413 C-12.3201325,-1.97933413 -12.8568597,-1.87284397 -13.2484481,-1.7950644 C-13.4639172,-1.75225953 -13.6504613,-1.71556965 -13.7725482,-1.71556965 C-13.8725376,-1.71556965 -13.8744463,-1.72153548 -13.8955895,-1.79491525 C-13.9575506,-2.00856672 -14.0028468,-2.22020472 -14.0469684,-2.42468371 C-14.1700097,-2.99725473 -14.2759456,-3.4919716 -14.7078381,-3.55931096 C-17.4691459,-3.99250515 -17.9130048,-4.57059457 -17.9830414,-4.73719051 C-17.9939801,-4.76344018 -17.9988988,-4.78581206 -18,-4.80564847 C-13.8807599,-5.49455326 -12.0504841,-9.68331518 -11.9338298,-9.96005535 C-11.6506734,-10.5430666 -11.6004584,-11.0618705 -11.7846533,-11.5020746 C-12.1107567,-12.2821821 -13.0795233,-12.5947918 -13.7204245,-12.8012843 C-13.8677657,-12.8486381 -13.9946245,-12.8898024 -14.0910166,-12.9284311 C-14.9232338,-13.2624433 -15.1792272,-13.5989164 -15.1411989,-13.8027988 C-15.0970773,-14.0379273 -14.6957983,-14.2770081 -14.3456152,-14.2770081 C-14.2669157,-14.2770081 -14.1979069,-14.264107 -14.1468844,-14.2398708 C-13.5781488,-13.9690965 -13.0589675,-13.8318077 -12.6035826,-13.8318077 C-11.8877261,-13.8318077 -11.5691108,-14.1701451 -11.5349,-14.2087739 L-11.4573018,-14.2969191 L-11.463542,-14.4149681 C-11.4780045,-14.6908134 -11.495844,-14.9797835 -11.5146379,-15.2774041 C-11.6308517,-17.157015 -11.7762107,-19.4947274 -11.2093839,-20.7861816 C-9.49370682,-24.6935052 -5.85730833,-24.9947053 -4.78385389,-24.9947053 C-4.75742498,-24.9947053 -4.29073438,-24.9995526 -4.29073438,-24.9995526 C-4.27164683,-24.9997017 -4.25043029,-25 -4.22818595,-25" id="Shape" fill="#FFFFFF"></path>
    </g>
</svg>