<?xml version="1.0" encoding="UTF-8"?>
<svg width="27px" height="26px" viewBox="0 0 27 26" version="1.1" xmlns="http://www.w3.org/2000/svg" xmlns:xlink="http://www.w3.org/1999/xlink">
    <!-- Generator: Sketch 42 (36781) - http://www.bohemiancoding.com/sketch -->
    <title>snap</title>
    <desc>Created with Sketch.</desc>
    <defs></defs>
    <g id="Page-1" stroke="none" stroke-width="1" fill="none" fill-rule="evenodd">
        <rect id="Rectangle" fill-opacity="0" fill="#FFFFFF" x="-20" y="-59" width="171" height="123"></rect>
        <path d="M32.0000278,25 C35.8021717,25 36.2789332,25.014965 37.7721821,25.078231 C39.2623189,25.1413422 40.2800288,25.3611219 41.170532,25.682509 C42.0911557,26.0146812 42.871902,26.4591945 43.6502587,27.1819026 C44.4285598,27.9046624 44.9072664,28.6296411 45.2650459,29.484506 C45.6110995,30.3114018 45.8477853,31.2564182 45.9157512,32.6401166 C45.9838838,34.0267049 46,34.469412 46,38.0000258 C46,41.530588 45.9838838,41.9732951 45.9157512,43.3598834 C45.8477853,44.7435818 45.6110995,45.6885982 45.2650459,46.515494 C44.9072664,47.3703589 44.4285598,48.0953376 43.6502587,48.8180974 C42.871902,49.5408055 42.0911557,49.9853188 41.170532,50.3175426 C40.2800288,50.6388781 39.2623189,50.8586578 37.7721821,50.921769 C36.2789332,50.985035 35.8021717,51 32.0000278,51 C28.1978283,51 27.7210668,50.985035 26.2278179,50.921769 C24.7376811,50.8586578 23.7199712,50.6388781 22.829468,50.3175426 C21.9088443,49.9853188 21.128098,49.5408055 20.3497413,48.8180974 C19.5714402,48.0953376 19.0927336,47.3703589 18.7350097,46.515494 C18.3889005,45.6885982 18.1522147,44.7435818 18.0842488,43.3598834 C18.0161162,41.9732951 18,41.530588 18,38.0000258 C18,34.469412 18.0161162,34.0267049 18.0842488,32.6401166 C18.1522147,31.2564182 18.3889005,30.3114018 18.7350097,29.484506 C19.0927336,28.6296411 19.5714402,27.9046624 20.3497413,27.1819026 C21.128098,26.4591945 21.9088443,26.0146812 22.829468,25.682509 C23.7199712,25.3611219 24.7376811,25.1413422 26.2278179,25.078231 C27.7210668,25.014965 28.1978283,25 32.0000278,25 Z M32.0000278,27.3423382 C28.2618485,27.3423382 27.8190421,27.3556003 26.3427986,27.4181438 C24.9778124,27.4759398 24.236523,27.6877209 23.7432007,27.8657533 C23.0897168,28.1015816 22.6233474,28.3832856 22.1334707,28.8382228 C21.6435383,29.2931083 21.3401649,29.7261656 21.0861958,30.3329721 C20.8944687,30.7910571 20.6663967,31.4793973 20.6041549,32.7468844 C20.5368003,34.117682 20.522518,34.5288593 20.522518,38.0000258 C20.522518,41.4711407 20.5368003,41.882318 20.6041549,43.2531156 C20.6663967,44.5206027 20.8944687,45.2089429 21.0861958,45.6670279 C21.3401649,46.2738344 21.6435939,46.7068917 22.1334707,47.1617772 C22.6233474,47.6167144 23.0897168,47.8984184 23.7432007,48.1342467 C24.236523,48.3122791 24.9778124,48.5240602 26.3427986,48.5818562 C27.8188754,48.6443997 28.2615706,48.6576618 32.0000278,48.6576618 C35.7384294,48.6576618 36.1811802,48.6443997 37.6572014,48.5818562 C39.0221876,48.5240602 39.763477,48.3122791 40.2567993,48.1342467 C40.9102832,47.8984184 41.3766526,47.6167144 41.8665293,47.1617772 C42.3564617,46.7068917 42.6598351,46.2738344 42.9138042,45.6670279 C43.1055313,45.2089429 43.3336033,44.5206027 43.3958451,43.2531156 C43.4631997,41.882318 43.477482,41.4711407 43.477482,38.0000258 C43.477482,34.5288593 43.4631997,34.117682 43.3958451,32.7468844 C43.3336033,31.4793973 43.1055313,30.7910571 42.9138042,30.3329721 C42.6598351,29.7261656 42.3564617,29.2931083 41.8665293,28.8382228 C41.3766526,28.3832856 40.9102832,28.1015816 40.2567993,27.8657533 C39.763477,27.6877209 39.0221876,27.4759398 37.6572014,27.4181438 C36.1809579,27.3556003 35.7381515,27.3423382 32.0000278,27.3423382 Z M32.0000278,31.3243285 C35.9705026,31.3243285 39.1891847,34.3131047 39.1891847,38.0000258 C39.1891847,41.6868953 35.9705026,44.6756715 32.0000278,44.6756715 C28.0294974,44.6756715 24.8108153,41.6868953 24.8108153,38.0000258 C24.8108153,34.3131047 28.0294974,31.3243285 32.0000278,31.3243285 Z M32.0000278,42.3333333 C34.5773409,42.3333333 36.6666667,40.3932451 36.6666667,38.0000258 C36.6666667,35.6067549 34.5773409,33.6666667 32.0000278,33.6666667 C29.4226591,33.6666667 27.3333333,35.6067549 27.3333333,38.0000258 C27.3333333,40.3932451 29.4226591,42.3333333 32.0000278,42.3333333 Z M41.1532487,31.0605826 C41.1532487,31.922156 40.401067,32.6205589 39.4732187,32.6205589 C38.545426,32.6205589 37.7932443,31.922156 37.7932443,31.0605826 C37.7932443,30.1990092 38.545426,29.5005547 39.4732187,29.5005547 C40.401067,29.5005547 41.1532487,30.1990092 41.1532487,31.0605826 Z" id="Instagram-Copy-4" fill="#FFFFFF"></path>
        <path d="M13.7718141,-1.0658141e-14 C14.8330084,-1.0658141e-14 18.4872464,0.289566717 20.2093105,4.21128294 C20.7763575,5.5026625 20.6309985,7.84194098 20.5144176,9.72110444 C20.496211,10.0193216 20.4781513,10.3083663 20.4634686,10.5843608 L20.4573018,10.7030063 L20.5352671,10.7913752 C20.5667616,10.826872 20.8615174,11.13978 21.5171013,11.1655077 L21.5276729,11.1661043 L21.5386849,11.1658805 C21.9721191,11.1491016 22.4603199,11.0123349 22.9905133,10.7600546 C23.0686255,10.7229173 23.1725792,10.7047961 23.2825528,10.7047961 C23.4078699,10.7047961 23.5410423,10.728734 23.6508691,10.7757149 L23.6674606,10.7824265 C23.9454781,10.8813848 24.1420065,11.0679663 24.1450164,11.2367994 C24.1466315,11.3322528 24.0763747,11.6761086 23.0908698,12.0715689 C22.9945511,12.1101976 22.8677657,12.1512873 22.7207916,12.1983429 C22.0794499,12.4052082 21.1105365,12.7173705 20.784433,13.4979254 C20.6008255,13.9376075 20.6511138,14.456486 20.9337564,15.0399447 C21.0500436,15.3156408 22.8806865,19.5042536 27,20.193755 C26.9991924,20.2135914 26.9942003,20.2352921 26.9831883,20.2608706 C26.9133719,20.427914 26.4695864,21.0050339 23.7080584,21.4378553 C23.2759456,21.5051201 23.1700831,21.9971523 23.0473355,22.5691267 C23.0029936,22.773904 22.9579177,22.9806202 22.8959565,23.1941225 C22.8770158,23.2586281 22.873492,23.2622822 22.8054375,23.2622822 L22.7729887,23.2622822 C22.6505347,23.2622822 22.4646513,23.23648 22.2491823,23.1935259 C21.8567863,23.1158955 21.3207198,23.0206659 20.6354033,23.0206659 C20.2529182,23.0206659 19.8589071,23.0544474 19.4635746,23.1214885 C18.61851,23.2642211 17.9312848,23.7579685 17.2034619,24.2805757 C16.2260325,24.9821579 15.2157872,25.7081254 13.6743941,25.7081254 C13.6070738,25.7081254 13.5413686,25.7058136 13.4755165,25.7024579 L13.4581909,25.7017121 L13.4407919,25.7030544 C13.4029839,25.7064102 13.3648822,25.7081254 13.3259729,25.7081254 C11.7848001,25.7081254 10.7741143,24.9823816 9.79712545,24.2805757 C9.06915566,23.7579685 8.38156338,23.2642211 7.53664565,23.1214885 C7.14168019,23.0546711 6.74730205,23.0206659 6.36503716,23.0206659 C5.67986753,23.0206659 5.14314031,23.127156 4.75155188,23.2049356 C4.53608281,23.2477405 4.34953872,23.2844304 4.22745181,23.2844304 C4.12746242,23.2844304 4.12555366,23.2784645 4.10441053,23.2050847 C4.04244941,22.9914333 3.99715318,22.7797953 3.95303158,22.5753163 C3.82999029,22.0027453 3.72405439,21.5080284 3.29216187,21.440689 C0.530854127,21.0074948 0.0869951792,20.4294054 0.0169585539,20.2628095 C0.00601991957,20.2365598 0.0011012048,20.2141879 1.59872116e-14,20.1943515 C4.11924009,19.5054467 5.94951588,15.3166848 6.06617017,15.0399447 C6.34932663,14.4569334 6.39954157,13.9381295 6.21534672,13.4979254 C5.88924327,12.7178179 4.9204767,12.4052082 4.27957551,12.1987157 C4.1322343,12.1513619 4.00537551,12.1101976 3.90898338,12.0715689 C3.07676621,11.7375567 2.8207728,11.4010836 2.85880107,11.1972012 C2.90292268,10.9620727 3.30420171,10.7229919 3.65438483,10.7229919 C3.73308427,10.7229919 3.8020931,10.735893 3.85311559,10.7601292 C4.42185117,11.0309035 4.94103252,11.1681923 5.39641741,11.1681923 C6.11227395,11.1681923 6.4308892,10.8298549 6.46509996,10.7912261 L6.5426982,10.7030809 L6.53645804,10.5850319 C6.52199555,10.3091866 6.50415603,10.0202165 6.48536213,9.7225959 C6.36914832,7.84298501 6.22378929,5.50527255 6.7906161,4.21381842 C8.50629318,0.306494774 12.1426917,0.00529467858 13.2161461,0.00529467858 C13.242575,0.00529467858 13.7092656,0.000447437626 13.7092656,0.000447437626 C13.7283532,0.000298291751 13.7495697,-1.0658141e-14 13.7718141,-1.0658141e-14" id="Shape" fill="#FFFFFF"></path>
    </g>
</svg>