<?xml version="1.0" encoding="UTF-8"?>
<svg width="15px" height="26px" viewBox="0 0 15 26" version="1.1" xmlns="http://www.w3.org/2000/svg" xmlns:xlink="http://www.w3.org/1999/xlink">
    <!-- Generator: Sketch 42 (36781) - http://www.bohemiancoding.com/sketch -->
    <title>tum</title>
    <desc>Created with Sketch.</desc>
    <defs></defs>
    <g id="Page-1" stroke="none" stroke-width="1" fill="none" fill-rule="evenodd">
        <rect id="Rectangle" fill-opacity="0" fill="#FFFFFF" x="-79" y="-66" width="171" height="123"></rect>
        <path d="M4.70861447,3.55271368e-15 C4.70861447,5.64546667 0,6.66813333 0,6.66813333 L0,10.5282667 L3.17561632,10.5282667 L3.17561632,20.1060889 C3.17561632,23.3251778 6.05937985,26 9.56750089,26 C13.0759023,26 15,24.5630667 15,24.5630667 L15,20.3054222 C15,20.3054222 13.9410874,21.7406222 11.7784049,21.7406222 C9.61600284,21.7406222 8.68044783,20.0078667 8.68044783,18.6708889 L8.68044783,10.5522444 L14.2082687,10.5522444 L14.2082687,6.46908889 L8.68044783,6.46908889 L8.68044783,3.55271368e-15 L4.70861447,3.55271368e-15 Z" id="Fill-22" fill="#FFFFFF"></path>
    </g>
</svg>