<?xml version="1.0" encoding="UTF-8"?>
<svg width="32px" height="26px" viewBox="0 0 32 26" version="1.1" xmlns="http://www.w3.org/2000/svg" xmlns:xlink="http://www.w3.org/1999/xlink">
    <!-- Generator: Sketch 42 (36781) - http://www.bohemiancoding.com/sketch -->
    <title>twitter</title>
    <desc>Created with Sketch.</desc>
    <defs></defs>
    <g id="Page-1" stroke="none" stroke-width="1" fill="none" fill-rule="evenodd">
        <rect id="Rectangle" fill-opacity="0" fill="#FFFFFF" x="-52" y="-16" width="171" height="123"></rect>
        <path d="M31.0174885,0.577066667 C30.0898514,1.17262222 27.9600108,2.03804444 26.9096347,2.03804444 L26.9096347,2.03982222 C25.7102691,0.784 24.0217213,0 22.149065,0 C18.5119472,0 15.5626643,2.95608889 15.5626643,6.60017778 C15.5626643,7.10648889 15.6211959,7.60035556 15.7293906,8.07395556 L15.7283264,8.07395556 C10.7946451,7.94417778 5.39874148,5.4656 2.15041533,1.22346667 C0.153246358,4.68835556 1.88152473,8.54186667 4.14793903,9.94595556 C3.37212934,10.0046222 1.94395843,9.85635556 1.27173193,9.19893333 C1.22668034,11.4986667 2.32991222,14.5457778 6.35262911,15.6512 C5.57788363,16.0689778 4.20647062,15.9491556 3.61015783,15.8602667 C3.81945262,17.8016 6.53177126,20.3395556 9.49772681,20.3395556 C8.44061073,21.5651556 4.46330017,23.7880889 0,23.0808889 C3.03122714,24.9294222 6.56405232,26 10.3033344,26 C20.9294794,26 29.1817248,17.3681778 28.7375942,6.71964444 C28.7358205,6.70791111 28.7358205,6.69617778 28.7347563,6.68337778 C28.7358205,6.656 28.7375942,6.62862222 28.7375942,6.60017778 C28.7375942,6.56711111 28.7347563,6.53582222 28.7336921,6.50382222 C29.7010597,5.84071111 30.9990422,4.66773333 31.9263245,3.12391111 C31.3885433,3.4208 29.7751997,4.01528889 28.273953,4.16284444 C29.2374185,3.6416 30.66488,1.93457778 31.0174885,0.577066667" id="Fill-1" fill="#FFFFFF"></path>
    </g>
</svg>