<?xml version="1.0" encoding="UTF-8"?>
<svg width="39px" height="40px" viewBox="0 0 39 40" version="1.1" xmlns="http://www.w3.org/2000/svg" xmlns:xlink="http://www.w3.org/1999/xlink" style="background: #FFFFFF;">
    <!-- Generator: Sketch 42 (36781) - http://www.bohemiancoding.com/sketch -->
    <title>Instagram</title>
    <desc>Created with Sketch.</desc>
    <defs></defs>
    <g id="Page-1" stroke="none" stroke-width="1" fill="none" fill-rule="evenodd">
        <g id="Instagram" transform="translate(1.000000, 1.000000)">
            <ellipse id="Oval" stroke="" fill-opacity="0" fill="#000000" cx="18.5936177" cy="18.8363818" rx="18.5936177" ry="18.8363818"></ellipse>
            <path d="M18.8472746,8.65455382 C21.9186733,8.65455382 22.3038046,8.6665267 23.5100616,8.71714308 C24.7138047,8.7676356 25.535918,8.94347179 26.2552727,9.20059971 C26.9989591,9.46635635 27.6296515,9.82199217 28.2584135,10.4001997 C28.8871306,10.9784485 29.2738332,11.5584726 29.56285,12.242413 C29.8423946,12.9039766 30.033591,13.6600433 30.0884944,14.7670805 C30.1435324,15.8764298 30.1565511,16.2306206 30.1565511,19.0553119 C30.1565511,21.879962 30.1435324,22.2341528 30.0884944,23.3435021 C30.033591,24.4505393 29.8423946,25.206606 29.56285,25.8681696 C29.2738332,26.55211 28.8871306,27.1321341 28.2584135,27.7103829 C27.6296515,28.2885904 26.9989591,28.6442262 26.2552727,28.9100242 C25.535918,29.1671108 24.7138047,29.342947 23.5100616,29.3934395 C22.3038046,29.4440559 21.9186733,29.4560288 18.8472746,29.4560288 C15.7758309,29.4560288 15.3906996,29.4440559 14.1844426,29.3934395 C12.9806996,29.342947 12.1585863,29.1671108 11.4392315,28.9100242 C10.6955451,28.6442262 10.0648528,28.2885904 9.43609073,27.7103829 C8.80737361,27.1321341 8.42067105,26.55211 8.1316991,25.8681696 C7.85210965,25.206606 7.6609132,24.4505393 7.60600988,23.3435021 C7.55097188,22.2341528 7.5379531,21.879962 7.5379531,19.0553119 C7.5379531,16.2306206 7.55097188,15.8764298 7.60600988,14.7670805 C7.6609132,13.6600433 7.85210965,12.9039766 8.1316991,12.242413 C8.42067105,11.5584726 8.80737361,10.9784485 9.43609073,10.4001997 C10.0648528,9.82199217 10.6955451,9.46635635 11.4392315,9.20059971 C12.1585863,8.94347179 12.9806996,8.7676356 14.1844426,8.71714308 C15.3906996,8.6665267 15.7758309,8.65455382 18.8472746,8.65455382 Z M18.8472746,10.5285572 C15.8275469,10.5285572 15.4698448,10.5391677 14.2773248,10.5892061 C13.1746793,10.6354461 12.5758605,10.804883 12.1773513,10.947319 C11.6494623,11.1359951 11.2727259,11.3613742 10.877,11.7253498 C10.4812291,12.089284 10.2361619,12.4357544 10.0310039,12.921234 C9.87612538,13.287728 9.69188725,13.8384392 9.64160784,14.8525008 C9.58719833,15.9492166 9.575661,16.2781818 9.575661,19.0553119 C9.575661,21.8324008 9.58719833,22.161366 9.64160784,23.2580818 C9.69188725,24.2721434 9.87612538,24.8228546 10.0310039,25.1893486 C10.2361619,25.6748282 10.481274,26.0212986 10.877,26.3852328 C11.2727259,26.7492084 11.6494623,26.9745875 12.1773513,27.1632636 C12.5758605,27.3056996 13.1746793,27.4751365 14.2773248,27.5213765 C15.4697101,27.5714149 15.8273224,27.5820254 18.8472746,27.5820254 C21.8671818,27.5820254 22.224839,27.5714149 23.4171794,27.5213765 C24.5198249,27.4751365 25.1186437,27.3056996 25.517153,27.1632636 C26.0450419,26.9745875 26.4217784,26.7492084 26.8175043,26.3852328 C27.2132751,26.0212986 27.4583423,25.6748282 27.6635003,25.1893486 C27.8183789,24.8228546 28.002617,24.2721434 28.0528964,23.2580818 C28.1073059,22.161366 28.1188432,21.8324008 28.1188432,19.0553119 C28.1188432,16.2781818 28.1073059,15.9492166 28.0528964,14.8525008 C28.002617,13.8384392 27.8183789,13.287728 27.6635003,12.921234 C27.4583423,12.4357544 27.2132751,12.089284 26.8175043,11.7253498 C26.4217784,11.3613742 26.0450419,11.1359951 25.517153,10.947319 C25.1186437,10.804883 24.5198249,10.6354461 23.4171794,10.5892061 C22.2246595,10.5391677 21.8669574,10.5285572 18.8472746,10.5285572 Z M18.8472746,13.7143754 C22.0546522,13.7143754 24.6547264,16.1055659 24.6547264,19.0553119 C24.6547264,22.0050167 22.0546522,24.3962072 18.8472746,24.3962072 C15.639852,24.3962072 13.0397779,22.0050167 13.0397779,19.0553119 C13.0397779,16.1055659 15.639852,13.7143754 18.8472746,13.7143754 Z M18.8472746,22.5222038 C20.9292463,22.5222038 22.6170185,20.9700231 22.6170185,19.0553119 C22.6170185,17.1405595 20.9292463,15.5883788 18.8472746,15.5883788 C16.7652579,15.5883788 15.0774858,17.1405595 15.0774858,19.0553119 C15.0774858,20.9700231 16.7652579,22.5222038 18.8472746,22.5222038 Z M26.2413112,13.5033637 C26.2413112,14.1926713 25.6336935,14.7514332 24.8841711,14.7514332 C24.1346936,14.7514332 23.5270758,14.1926713 23.5270758,13.5033637 C23.5270758,12.8140561 24.1346936,12.2552529 24.8841711,12.2552529 C25.6336935,12.2552529 26.2413112,12.8140561 26.2413112,13.5033637 Z" id="Instagram-Copy-2" fill=""></path>
        </g>
    </g>
</svg>