<?xml version="1.0" encoding="UTF-8"?>
<svg width="37px" height="38px" viewBox="0 0 37 38" version="1.1" xmlns="http://www.w3.org/2000/svg" xmlns:xlink="http://www.w3.org/1999/xlink" style="background: #FFFFFF;">
    <!-- Generator: Sketch 42 (36781) - http://www.bohemiancoding.com/sketch -->
    <title>Snapchat</title>
    <desc>Created with Sketch.</desc>
    <defs></defs>
    <g id="Page-1" stroke="none" stroke-width="1" fill="none" fill-rule="evenodd">
        <g id="Snapchat" transform="translate(1.000000, 1.000000)">
            <ellipse id="Oval-1-Copy-58" stroke="#F8E81C" fill-opacity="0" fill="#000000" cx="17.5885572" cy="17.818199" rx="17.5885572" ry="17.818199"></ellipse>
            <path d="M17.5736511,9.60752001 C18.2744165,9.60752001 20.6875122,9.79822214 21.8246865,12.3809762 C22.1991391,13.2314498 22.1031505,14.772046 22.0261657,16.0096208 C22.0141428,16.2060199 22.002217,16.3963782 21.9925212,16.578142 L21.9884489,16.6562793 L22.0399337,16.7144771 C22.0607313,16.7378544 22.2553749,16.9439286 22.6882932,16.9608723 L22.6952742,16.9612652 L22.7025461,16.9611178 C22.9887667,16.9500676 23.3111527,16.8599961 23.6612688,16.69385 C23.7128505,16.6693922 23.781497,16.657458 23.8541187,16.657458 C23.9368725,16.657458 24.0248136,16.6732229 24.0973383,16.7041635 L24.1082946,16.7085836 C24.2918849,16.7737553 24.4216635,16.8966337 24.4236511,17.0078234 C24.4247177,17.0706868 24.3783232,17.2971425 23.7275397,17.5575838 C23.6639351,17.5830238 23.5802117,17.6100846 23.4831566,17.6410743 C23.0596431,17.7773111 22.419816,17.9828942 22.2044718,18.4969502 C22.0832256,18.7865149 22.1164337,19.1282366 22.3030783,19.5124893 C22.3798692,19.6940566 23.5887441,22.4525828 26.3089549,22.9066729 C26.3084216,22.9197367 26.305125,22.9340283 26.2978532,22.9508737 C26.2517496,23.0608847 25.9586934,23.440963 24.1351035,23.7260094 C23.8497555,23.7703084 23.7798487,24.0943498 23.6987916,24.4710393 C23.6695102,24.605901 23.6397441,24.7420397 23.5988277,24.8826475 C23.5863201,24.9251294 23.5839931,24.9275359 23.539053,24.9275359 L23.5176252,24.9275359 C23.4367621,24.9275359 23.314013,24.9105431 23.1717268,24.8822546 C22.912606,24.8311289 22.5586116,24.7684128 22.1060592,24.7684128 C21.8534831,24.7684128 21.5932958,24.7906606 21.3322358,24.8348123 C20.7741929,24.9288128 20.32038,25.2539838 19.8397582,25.5981611 C19.1943075,26.0602073 18.5271865,26.5383132 17.5093193,26.5383132 C17.464864,26.5383132 17.4214752,26.5367908 17.3779894,26.5345807 L17.3665484,26.5340896 L17.3550588,26.5349736 C17.3300921,26.5371837 17.3049314,26.5383132 17.2792375,26.5383132 C16.2615157,26.5383132 15.594104,26.0603547 14.9489441,25.5981611 C14.4682253,25.2539838 14.0141701,24.9288128 13.4562241,24.8348123 C13.1954065,24.7908079 12.9349768,24.7684128 12.6825461,24.7684128 C12.2300907,24.7684128 11.8756599,24.8385449 11.6170724,24.8897687 C11.4747863,24.9179591 11.3516009,24.9421222 11.2709801,24.9421222 C11.2049516,24.9421222 11.2036911,24.9381932 11.1897291,24.889867 C11.1488128,24.7491609 11.1189012,24.6097809 11.0897652,24.4751156 C11.0085143,24.0980332 10.9385589,23.7722238 10.6533564,23.7278756 C8.82991194,23.4425837 8.5368073,23.061867 8.49055823,22.9521506 C8.48333485,22.9348632 8.48008675,22.9201296 8.47935956,22.9070658 C11.1995219,22.4533686 12.4081544,19.6947442 12.4851877,19.5124893 C12.6721716,19.1285312 12.7053313,18.7868586 12.5836972,18.4969502 C12.3683531,17.9831889 11.7286228,17.7773111 11.3054003,17.6413198 C11.2081027,17.6101337 11.1243308,17.5830238 11.0606778,17.5575838 C10.5111187,17.3376109 10.3420721,17.1160173 10.3671842,16.9817449 C10.3963202,16.8268946 10.6613069,16.6694413 10.8925523,16.6694413 C10.9445219,16.6694413 10.9900922,16.6779377 11.0237852,16.6938991 C11.3993528,16.872225 11.742197,16.9626403 12.0429128,16.9626403 C12.5156326,16.9626403 12.7260319,16.7398189 12.7486231,16.7143788 L12.7998655,16.6563284 L12.7957448,16.578584 C12.7861944,16.3969185 12.774414,16.2066092 12.7620034,16.010603 C12.6852609,14.7727336 12.5892723,13.2331687 12.9635795,12.3826461 C14.0965361,9.80937058 16.4978514,9.61100697 17.2067128,9.61100697 C17.2241653,9.61100697 17.5323469,9.60781469 17.5323469,9.60781469 C17.5449515,9.60771646 17.5589619,9.60752001 17.5736511,9.60752001" id="Shape" fill="#F8E81C"></path>
        </g>
    </g>
</svg>