<?xml version="1.0" encoding="UTF-8"?>
<svg width="37px" height="38px" viewBox="0 0 37 38" version="1.1" xmlns="http://www.w3.org/2000/svg" xmlns:xlink="http://www.w3.org/1999/xlink" style="background: #FFFFFF;">
    <!-- Generator: Sketch 42 (36781) - http://www.bohemiancoding.com/sketch -->
    <title>Tumblr</title>
    <desc>Created with Sketch.</desc>
    <defs></defs>
    <g id="Page-1" stroke="none" stroke-width="1" fill="none" fill-rule="evenodd">
        <g id="Tumblr" transform="translate(1.000000, 1.000000)">
            <ellipse id="Oval-1-Copy-13" stroke="#4F89BA" fill-opacity="0" fill="#000000" cx="17.5885572" cy="17.818199" rx="17.5885572" ry="17.818199"></ellipse>
            <path d="M15.8454754,8.65455382 C15.8454754,12.5274781 12.5632552,13.2290517 12.5632552,13.2290517 L12.5632552,15.8771949 L14.7768728,15.8771949 L14.7768728,22.4478085 C14.7768728,24.6561799 16.7870495,26.4911715 19.2324452,26.4911715 C21.6780364,26.4911715 23.0192616,25.5054011 23.0192616,25.5054011 L23.0192616,22.5845559 C23.0192616,22.5845559 22.2811285,23.5691372 20.7735937,23.5691372 C19.2662543,23.5691372 18.6141097,22.3804257 18.6141097,21.4632272 L18.6141097,15.8936442 L22.4673718,15.8936442 L22.4673718,13.0925025 L18.6141097,13.0925025 L18.6141097,8.65455382 L15.8454754,8.65455382 Z" id="Fill-22" fill="#4F89BA"></path>
        </g>
    </g>
</svg>