<?xml version="1.0" encoding="UTF-8"?>
<svg width="37px" height="38px" viewBox="0 0 37 38" version="1.1" xmlns="http://www.w3.org/2000/svg" xmlns:xlink="http://www.w3.org/1999/xlink" style="background: #FFFFFF;">
    <!-- Generator: Sketch 42 (36781) - http://www.bohemiancoding.com/sketch -->
    <title>Twitter</title>
    <desc>Created with Sketch.</desc>
    <defs></defs>
    <g id="Page-1" stroke="none" stroke-width="1" fill="none" fill-rule="evenodd">
        <g id="Twitter" transform="translate(1.000000, 1.000000)">
            <ellipse id="Oval-1" stroke="#00AAEC" fill-opacity="0" fill="#000000" cx="17.5885572" cy="17.818199" rx="17.5885572" ry="17.818199"></ellipse>
            <path d="M25.6451885,11.0030603 C25.1487445,11.3252021 24.0089167,11.7933173 23.4467864,11.7933173 L23.4467864,11.7942789 C22.8049213,11.1149926 21.9012603,10.6909194 20.8990699,10.6909194 C18.9525917,10.6909194 17.3742225,12.2898963 17.3742225,14.261019 C17.3742225,14.5348876 17.4055469,14.8020248 17.4634496,15.0581996 L17.46288,15.0581996 C14.8225193,14.9880016 11.9347909,13.647315 10.1963826,11.3527043 C9.12755665,13.226896 10.0524803,15.3112972 11.2653983,16.0707824 C10.8502079,16.1025158 10.0858929,16.0223169 9.72613713,15.6667109 C9.70202685,16.9106588 10.292444,18.5588705 12.4452834,19.156804 C12.0306625,19.382784 11.2967227,19.317971 10.9775937,19.2698901 C11.0896021,20.319976 12.541155,21.6927806 14.1284469,21.6927806 C13.5627096,22.3557194 11.4341703,23.5581254 9.04554372,23.1755941 C10.6677671,24.1754836 12.5584309,24.7545694 14.5595843,24.7545694 C20.2463837,24.7545694 24.662742,20.0855338 24.4250563,14.3256397 C24.4241071,14.319293 24.4241071,14.3129464 24.4235376,14.3060227 C24.4241071,14.2912138 24.4250563,14.2764049 24.4250563,14.261019 C24.4250563,14.243133 24.4235376,14.2262085 24.4229681,14.2088994 C24.9406747,13.8502162 25.6353166,13.2157413 26.1315708,12.380673 C25.8437661,12.541263 24.9803522,12.8628278 24.1769293,12.942642 C24.6925476,12.6606959 25.4564828,11.7373511 25.6451885,11.0030603" id="Fill-1" fill="#00AAEC"></path>
        </g>
    </g>
</svg>