<?xml version="1.0" encoding="UTF-8"?>
<svg width="23px" height="27px" viewBox="0 0 23 27" version="1.1" xmlns="http://www.w3.org/2000/svg" xmlns:xlink="http://www.w3.org/1999/xlink" style="background: #FFFFFF;">
    <!-- Generator: Sketch 42 (36781) - http://www.bohemiancoding.com/sketch -->
    <title>ic_info_outline</title>
    <desc>Created with Sketch.</desc>
    <defs></defs>
    <g id="Page-1" stroke="none" stroke-width="1" fill="none" fill-rule="evenodd">
        <g id="ic_info_outline" transform="translate(-2.000000, -2.000000)">
            <g id="Icon-24px">
                <polygon id="Shape" points="0 0 26.3323442 0 26.3323442 31.2480418 0 31.2480418"></polygon>
                <path d="M12.0689911,22.1340296 L14.2633531,22.1340296 L14.2633531,14.3220191 L12.0689911,14.3220191 L12.0689911,22.1340296 L12.0689911,22.1340296 Z M13.1661721,2.60400348 C7.10973294,2.60400348 2.19436202,8.43697128 2.19436202,15.6240209 C2.19436202,22.8110705 7.10973294,28.6440383 13.1661721,28.6440383 C19.2226113,28.6440383 24.1379822,22.8110705 24.1379822,15.6240209 C24.1379822,8.43697128 19.2226113,2.60400348 13.1661721,2.60400348 L13.1661721,2.60400348 Z M13.1661721,26.0400348 C8.32760386,26.0400348 4.38872404,21.3658486 4.38872404,15.6240209 C4.38872404,9.88219321 8.32760386,5.20800696 13.1661721,5.20800696 C18.0047404,5.20800696 21.9436202,9.88219321 21.9436202,15.6240209 C21.9436202,21.3658486 18.0047404,26.0400348 13.1661721,26.0400348 L13.1661721,26.0400348 Z M12.0689911,11.7180157 L14.2633531,11.7180157 L14.2633531,9.11401218 L12.0689911,9.11401218 L12.0689911,11.7180157 L12.0689911,11.7180157 Z" id="Shape" fill="#FFFFFF"></path>
            </g>
        </g>
    </g>
</svg>