<?xml version="1.0" encoding="UTF-8"?>
<svg width="21px" height="24px" viewBox="0 0 21 24" version="1.1" xmlns="http://www.w3.org/2000/svg" xmlns:xlink="http://www.w3.org/1999/xlink" style="background: #FFFFFF;">
    <!-- Generator: Sketch 42 (36781) - http://www.bohemiancoding.com/sketch -->
    <title>Icon 24px</title>
    <desc>Created with Sketch.</desc>
    <defs></defs>
    <g id="Page-1" stroke="none" stroke-width="1" fill="none" fill-rule="evenodd">
        <g id="Icon-24px" transform="translate(-1.000000, -2.000000)">
            <polygon id="Shape" points="0 0 23.2344214 0 23.2344214 27.5718016 0 27.5718016"></polygon>
            <path d="M21.2982196,18.381201 L21.2982196,4.59530026 C21.2982196,3.33159269 20.4269288,2.29765013 19.3620178,2.29765013 L7.74480712,2.29765013 C6.67989614,2.29765013 5.80860534,3.33159269 5.80860534,4.59530026 L5.80860534,18.381201 C5.80860534,19.6449086 6.67989614,20.6788512 7.74480712,20.6788512 L19.3620178,20.6788512 C20.4269288,20.6788512 21.2982196,19.6449086 21.2982196,18.381201 L21.2982196,18.381201 Z M10.6491098,13.7859008 L12.6143546,16.8992167 L15.4896142,12.6370757 L19.3620178,18.381201 L7.74480712,18.381201 L10.6491098,13.7859008 L10.6491098,13.7859008 Z M1.93620178,6.89295039 L1.93620178,22.9765013 C1.93620178,24.2402089 2.80749258,25.2741514 3.87240356,25.2741514 L17.425816,25.2741514 L17.425816,22.9765013 L3.87240356,22.9765013 L3.87240356,6.89295039 L1.93620178,6.89295039 L1.93620178,6.89295039 Z" id="Shape" fill="#FFFFFF"></path>
        </g>
    </g>
</svg>