<?xml version="1.0" encoding="UTF-8"?>
<svg width="21px" height="22px" viewBox="0 0 21 22" version="1.1" xmlns="http://www.w3.org/2000/svg" xmlns:xlink="http://www.w3.org/1999/xlink" style="background: #FFFFFF;">
    <!-- Generator: Sketch 42 (36781) - http://www.bohemiancoding.com/sketch -->
    <title>align-justify</title>
    <desc>Created with Sketch.</desc>
    <defs></defs>
    <g id="Page-1" stroke="none" stroke-width="1" fill="none" fill-rule="evenodd">
        <path d="M11.0645025,19.9640267 C11.0645025,19.3154894 10.6136967,18.7896722 10.0576776,18.7896722 L1.07478561,18.7896722 C0.518766543,18.7896722 0.0679606825,19.3154894 0.0679606825,19.9640267 C0.0679606825,20.612564 0.518766543,21.1383812 1.07478561,21.1383812 L10.0576776,21.1383812 C10.6136967,21.1383812 11.0645025,20.612564 11.0645025,19.9640267 M20.1364985,13.7070659 C20.1364985,13.0585286 19.6856927,12.5327113 19.1296736,12.5327113 L1.00682493,12.5327113 C0.450805861,12.5327113 -7.10542736e-15,13.0585286 -7.10542736e-15,13.7070659 C-7.10542736e-15,14.3556031 0.450805861,14.8814204 1.00682493,14.8814204 L19.1296736,14.8814204 C19.6856927,14.8814204 20.1364985,14.3556031 20.1364985,13.7070659 M20.1364985,7.45010502 C20.1364985,6.80156774 19.6856927,6.27575051 19.1296736,6.27575051 L1.00682493,6.27575051 C0.450805861,6.27575051 -7.10542736e-15,6.80156774 -7.10542736e-15,7.45010502 C-7.10542736e-15,8.0986423 0.450805861,8.62445953 1.00682493,8.62445953 L19.1296736,8.62445953 C19.6856927,8.62445953 20.1364985,8.0986423 20.1364985,7.45010502 M19.1296736,2.34870902 L1.00682493,2.34870902 C0.450805861,2.34870902 -7.10542736e-15,1.82289179 -7.10542736e-15,1.17435451 C-7.10542736e-15,0.525817232 0.450805861,0 1.00682493,0 L19.1296736,0 C19.6856927,0 20.1364985,0.525817232 20.1364985,1.17435451 C20.1364985,1.82289179 19.6856927,2.34870902 19.1296736,2.34870902" id="align-justify" fill="#FFFFFF"></path>
    </g>
</svg>