<?xml version="1.0" encoding="UTF-8"?>
<svg width="24px" height="23px" viewBox="0 0 24 23" version="1.1" xmlns="http://www.w3.org/2000/svg" xmlns:xlink="http://www.w3.org/1999/xlink" style="background: #FFFFFF;">
    <!-- Generator: Sketch 42 (36781) - http://www.bohemiancoding.com/sketch -->
    <title>user-group</title>
    <desc>Created with Sketch.</desc>
    <defs></defs>
    <g id="Page-1" stroke="none" stroke-width="1" fill="none" fill-rule="evenodd">
        <path d="M19.5698935,9.91481984 C19.5698935,8.49600737 18.6298527,7.3418842 17.4745232,7.3418842 C17.1911654,7.3418842 16.9165141,7.41000276 16.6582205,7.54429366 C16.2553459,7.75383935 15.7909979,7.52191184 15.6210887,7.02691691 C15.4509157,6.5315976 15.6392933,5.9610235 16.0419041,5.75180218 C16.4962264,5.51533344 16.9782513,5.39563938 17.4745232,5.39563938 C19.5028797,5.39563938 21.1528981,7.42297773 21.1528981,9.91481984 C21.1528981,12.406662 19.5028797,14.4340003 17.4745232,14.4340003 C16.4215614,14.4340003 15.417145,13.8776987 14.7187761,12.9081444 C14.4290863,12.5055961 14.4594272,11.8905827 14.7868453,11.5344199 C15.1137358,11.1782571 15.614229,11.2155601 15.9039189,11.6181084 C16.3020445,12.170842 16.8745645,12.4877555 17.4745232,12.4877555 C18.6298527,12.4877555 19.5698935,11.3336323 19.5698935,9.91481984 L19.5698935,9.91481984 Z M24.0089021,18.5026251 C24.0089021,19.040113 23.6545729,19.4624482 23.2173998,19.4624482 L19.6907295,19.4624482 C19.2535565,19.4624482 18.8992273,19.0264893 18.8992273,18.4893258 C18.8992273,17.9518378 19.2535565,17.5162033 19.6907295,17.5162033 L22.0399083,17.5162033 C21.657085,16.8674551 21.0149128,16.3555927 20.2284234,15.8242679 C19.8453363,15.5654173 19.7055043,14.9873826 19.9160439,14.5163913 C20.1263196,14.0447513 20.6078168,13.8734818 20.9909039,14.1323324 C22.1180032,14.8936385 24.0089021,16.4626362 24.0089021,18.5026251 L24.0089021,18.5026251 Z M2.96760583,19.4624482 C3.86305873,18.6346454 5.36321936,17.6997991 6.99371402,17.0072603 L8.79675619,18.3517911 C9.13340848,18.6025323 9.55527919,18.6025323 9.89140382,18.3517911 L11.6947098,17.0072603 C13.3254683,17.6997991 14.8253651,18.6346454 15.7210818,19.4624482 L2.96760583,19.4624482 Z M11.8833512,14.3503118 C11.5933975,14.237754 11.2775881,14.2834907 11.0171839,14.4774664 L9.34421192,15.7250094 L7.67123996,14.4774664 C7.41057189,14.2834907 7.09476248,14.2374296 6.80507265,14.3503118 C5.20861258,14.9727857 1.0658141e-14,17.2745446 1.0658141e-14,20.7599447 C1.0658141e-14,21.4764872 0.472526853,22.0574413 1.05533636,22.0574413 L17.6330875,22.0574413 C18.215897,22.0574413 18.6884238,21.4764872 18.6884238,20.7599447 C18.6884238,17.2745446 13.4798113,14.9727857 11.8833512,14.3503118 L11.8833512,14.3503118 Z M9.34421192,2.59499309 C11.2572729,2.59499309 12.8136302,4.5062055 12.8136302,6.85532299 C12.8136302,9.20476486 11.2572729,11.1159773 9.34421192,11.1159773 C7.43115094,11.1159773 5.87452982,9.20476486 5.87452982,6.85532299 C5.87452982,4.5062055 7.43115094,2.59499309 9.34421192,2.59499309 L9.34421192,2.59499309 Z M9.34421192,13.7109704 C12.4210451,13.7109704 14.9243029,10.6355792 14.9243029,6.85532299 C14.9243029,3.07539118 12.4210451,0 9.34421192,0 C6.26711494,0 3.76385711,3.07539118 3.76385711,6.85532299 C3.76385711,10.6355792 6.26711494,13.7109704 9.34421192,13.7109704 L9.34421192,13.7109704 Z" id="user-group" fill="#FFFFFF"></path>
    </g>
</svg>