<?xml version="1.0" encoding="UTF-8"?>
<svg width="26px" height="22px" viewBox="0 0 26 22" version="1.1" xmlns="http://www.w3.org/2000/svg" xmlns:xlink="http://www.w3.org/1999/xlink" style="background: #FFFFFF;">
    <!-- Generator: Sketch 42 (36781) - http://www.bohemiancoding.com/sketch -->
    <title>Icon 24px</title>
    <desc>Created with Sketch.</desc>
    <defs></defs>
    <g id="Page-1" stroke="none" stroke-width="1" fill="none" fill-rule="evenodd">
        <g id="Icon-24px" transform="translate(13.500000, 11.000000) rotate(-90.000000) translate(-13.500000, -11.000000) translate(1.000000, -4.000000)">
            <polygon id="Shape" points="-9.9475983e-14 -9.23705556e-14 24.7833828 -9.23705556e-14 24.7833828 29.4099217 -9.9475983e-14 29.4099217"></polygon>
            <ellipse id="Oval" cx="6.1958457" cy="22.0574413" rx="2.0652819" ry="2.45082681"></ellipse>
            <ellipse id="Oval" cx="12.3916914" cy="14.7049608" rx="0.516320475" ry="0.612706701"></ellipse>
            <ellipse id="Oval" cx="6.1958457" cy="7.35248042" rx="2.0652819" ry="2.45082681"></ellipse>
            <path d="M9.95465875,9.3621584 C10.1921662,8.7494517 10.3264095,8.07547433 10.3264095,7.35248042 C10.3264095,4.6443168 8.4779822,2.45082681 6.1958457,2.45082681 C3.9137092,2.45082681 2.0652819,4.6443168 2.0652819,7.35248042 C2.0652819,10.060644 3.9137092,12.254134 6.1958457,12.254134 C6.80510386,12.254134 7.37305638,12.0948303 7.88937685,11.8129852 L10.3264095,14.7049608 L7.88937685,17.5969365 C7.37305638,17.3150914 6.80510386,17.1557876 6.1958457,17.1557876 C3.9137092,17.1557876 2.0652819,19.3492776 2.0652819,22.0574413 C2.0652819,24.7656049 3.9137092,26.9590949 6.1958457,26.9590949 C8.4779822,26.9590949 10.3264095,24.7656049 10.3264095,22.0574413 C10.3264095,21.3344473 10.1921662,20.66047 9.95465875,20.0477633 L12.3916914,17.1557876 L19.620178,25.7336815 L22.7181009,25.7336815 L22.7181009,24.5082681 L9.95465875,9.3621584 L9.95465875,9.3621584 Z M6.1958457,9.80330722 C5.05994065,9.80330722 4.1305638,8.7126893 4.1305638,7.35248042 C4.1305638,5.99227154 5.05994065,4.90165361 6.1958457,4.90165361 C7.33175074,4.90165361 8.2611276,5.99227154 8.2611276,7.35248042 C8.2611276,8.7126893 7.33175074,9.80330722 6.1958457,9.80330722 L6.1958457,9.80330722 Z M6.1958457,24.5082681 C5.05994065,24.5082681 4.1305638,23.4176501 4.1305638,22.0574413 C4.1305638,20.6972324 5.05994065,19.6066144 6.1958457,19.6066144 C7.33175074,19.6066144 8.2611276,20.6972324 8.2611276,22.0574413 C8.2611276,23.4176501 7.33175074,24.5082681 6.1958457,24.5082681 L6.1958457,24.5082681 Z M12.3916914,15.3176675 C12.1025519,15.3176675 11.8753709,15.0480766 11.8753709,14.7049608 C11.8753709,14.3618451 12.1025519,14.0922541 12.3916914,14.0922541 C12.6808309,14.0922541 12.9080119,14.3618451 12.9080119,14.7049608 C12.9080119,15.0480766 12.6808309,15.3176675 12.3916914,15.3176675 L12.3916914,15.3176675 Z M19.620178,3.67624021 L13.4243323,11.0287206 L15.4896142,13.4795474 L22.7181009,4.90165361 L22.7181009,3.67624021 L19.620178,3.67624021 Z" id="Shape" fill="#FFFFFF"></path>
        </g>
    </g>
</svg>