<?xml version="1.0" encoding="UTF-8"?>
<svg width="20px" height="30px" viewBox="0 0 20 30" version="1.1" xmlns="http://www.w3.org/2000/svg" xmlns:xlink="http://www.w3.org/1999/xlink" style="background: #FFFFFF;">
    <!-- Generator: Sketch 42 (36781) - http://www.bohemiancoding.com/sketch -->
    <title>shopping-bag</title>
    <desc>Created with Sketch.</desc>
    <defs></defs>
    <g id="Page-1" stroke="none" stroke-width="1" fill="none" fill-rule="evenodd">
        <path d="M17.1442365,26.7957064 L2.21280198,26.7957064 L2.21280198,10.1300841 L3.87240346,10.1300841 L3.87240346,12.3949749 C3.87240346,13.1168251 4.36779451,13.7020825 4.97880445,13.7020825 C5.5898144,13.7020825 6.08520544,13.1168251 6.08520544,12.3949749 L6.08520544,10.1300841 L13.2768119,10.1300841 L13.2768119,12.3949749 C13.2768119,13.1168251 13.7722029,13.7020825 14.3832129,13.7020825 C14.9942228,13.7020825 15.4896139,13.1168251 15.4896139,12.3949749 L15.4896139,10.1300841 L17.1489387,10.1300841 L17.1442365,26.7957064 Z M6.08520544,6.91917424 C6.08520544,4.54546678 7.74425372,2.61421526 9.6220928,2.61421526 L9.73992451,2.61421526 C11.6180402,2.61421526 13.2768119,4.54546678 13.2768119,6.91917424 L13.2768119,7.51586887 L6.08520544,7.51586887 L6.08520544,6.91917424 Z M19.0381184,7.92401323 C18.8306682,7.67893055 18.5490892,7.51586887 18.2556163,7.51586887 L15.4896139,7.51586887 L15.4896139,6.91917424 C15.4896139,3.10405384 12.8381239,0 9.73992451,0 L9.6220928,0 C6.52389343,0 3.87240346,3.10405384 3.87240346,6.91917424 L3.87240346,7.51586887 L1.10640099,7.51586887 C0.495391043,7.51586887 0,8.15177673 0,8.87362692 L0,28.102814 C0,28.8246642 0.495391043,29.4099217 1.10640099,29.4099217 L18.2503609,29.4099217 C18.8610943,29.4099217 19.3564853,28.824991 19.3567619,28.1031408 L19.3620173,8.86153618 C19.3622939,8.51482588 19.2455686,8.16942269 19.0381184,7.92401323 L19.0381184,7.92401323 Z" id="shopping-bag" fill="#FFFFFF"></path>
    </g>
</svg>